<?xml version="1.0" encoding="UTF-8" standalone="no"?>
<!DOCTYPE svg PUBLIC "-//W3C//DTD SVG 1.1//EN" "http://www.w3.org/Graphics/SVG/1.1/DTD/svg11.dtd">
<svg width="100%" height="100%" viewBox="0 0 1081 1081" version="1.1" xmlns="http://www.w3.org/2000/svg" xmlns:xlink="http://www.w3.org/1999/xlink" xml:space="preserve" xmlns:serif="http://www.serif.com/" style="fill-rule:evenodd;clip-rule:evenodd;stroke-linejoin:round;stroke-miterlimit:2;">
    <g transform="matrix(1,0,0,1,-42,-1212)">
        <g transform="matrix(1,0,0,1,0,1212.25)">
            <g id="mei_logo_s_squared" transform="matrix(2.609,0,0,2.609,-1879.86,-894.769)">
                <g transform="matrix(0.972992,0,0,1.01052,13.4477,-1212.5)">
                    <rect x="743.409" y="1539.27" width="425.442" height="409.644" style="fill:url(#_Linear1);"/>
                </g>
                <g transform="matrix(1.02976,0,0,1.02976,737.803,353.98)">
                    <path d="M180.035,146.496L180.035,148.94C180.035,151.596 178.98,154.144 177.101,156.022C175.223,157.9 172.675,158.956 170.019,158.956C170.018,158.956 170.017,158.956 170.016,158.956C167.36,158.956 164.812,157.9 162.934,156.022C161.055,154.144 160,151.596 160,148.94L160,130C160,113.431 146.569,100 130,100L130,100C113.431,100 100,113.431 100,130C100,167.761 100,232.239 100,270C100,277.956 103.161,285.587 108.787,291.213C114.413,296.839 122.044,300 130,300L130,300C146.569,300 160,286.569 160,270L160,194.211C160,191.555 161.055,189.007 162.934,187.129C164.812,185.25 167.36,184.195 170.016,184.195C170.017,184.195 170.018,184.195 170.019,184.195C172.675,184.195 175.223,185.25 177.101,187.129C178.98,189.007 180.035,191.555 180.035,194.211L180.035,202.867C180.035,213.902 188.981,222.849 200.017,222.849C200.017,222.849 200.018,222.849 200.018,222.849C210.655,222.849 219.351,214.537 219.965,204.055L219.965,194.211C219.965,191.555 221.02,189.007 222.899,187.129C224.777,185.25 227.325,184.195 229.981,184.195C229.982,184.195 229.983,184.195 229.984,184.195C232.64,184.195 235.188,185.25 237.066,187.129C238.945,189.007 240,191.555 240,194.211L240,270C240,277.956 243.161,285.587 248.787,291.213C254.413,296.839 262.044,300 270,300L270,300C286.569,300 300,286.569 300,270C300,232.239 300,167.761 300,130C300,113.431 286.569,100 270,100C270,100 270,100 270,100C253.431,100 240,113.431 240,130L240,148.94C240,151.596 238.945,154.144 237.066,156.022C235.188,157.9 232.64,158.956 229.984,158.956C229.983,158.956 229.982,158.956 229.981,158.956C227.325,158.956 224.777,157.9 222.899,156.022C221.02,154.144 219.965,151.596 219.965,148.94L219.965,145.307C219.351,134.826 210.655,126.514 200.018,126.514C200.018,126.514 200.017,126.514 200.017,126.514C188.981,126.514 180.035,135.46 180.035,146.496Z" style="fill:white;"/>
                </g>
            </g>
        </g>
    </g>
    <defs>
        <linearGradient id="_Linear1" x1="0" y1="0" x2="1" y2="0" gradientUnits="userSpaceOnUse" gradientTransform="matrix(-59.3827,409.644,-425.442,-57.1775,988.555,1539.27)"><stop offset="0" style="stop-color:rgb(43,213,200);stop-opacity:1"/><stop offset="1" style="stop-color:rgb(0,159,213);stop-opacity:1"/></linearGradient>
    </defs>
</svg>
