<?xml version="1.0" encoding="UTF-8" standalone="no"?>
<!DOCTYPE svg PUBLIC "-//W3C//DTD SVG 1.1//EN" "http://www.w3.org/Graphics/SVG/1.1/DTD/svg11.dtd">
<svg width="100%" height="100%" viewBox="0 0 1064 332" version="1.1" xmlns="http://www.w3.org/2000/svg" xmlns:xlink="http://www.w3.org/1999/xlink" xml:space="preserve" xmlns:serif="http://www.serif.com/" style="fill-rule:evenodd;clip-rule:evenodd;stroke-linejoin:round;stroke-miterlimit:2;">
    <g transform="matrix(1,0,0,1,-428,-374)">
        <g id="mei_logo_h_transparent" transform="matrix(3.30178,0,0,3.30178,-2213.14,-1275.98)">
            <g transform="matrix(0.5,0,0,0.5,750,450)">
                <path d="M180.035,146.496L180.035,148.94C180.035,151.596 178.98,154.144 177.101,156.022C175.223,157.9 172.675,158.956 170.019,158.956C170.018,158.956 170.017,158.956 170.016,158.956C167.36,158.956 164.812,157.9 162.934,156.022C161.055,154.144 160,151.596 160,148.94L160,130C160,113.431 146.569,100 130,100L130,100C113.431,100 100,113.431 100,130C100,167.761 100,232.239 100,270C100,277.956 103.161,285.587 108.787,291.213C114.413,296.839 122.044,300 130,300L130,300C146.569,300 160,286.569 160,270L160,194.211C160,191.555 161.055,189.007 162.934,187.129C164.812,185.25 167.36,184.195 170.016,184.195C170.017,184.195 170.018,184.195 170.019,184.195C172.675,184.195 175.223,185.25 177.101,187.129C178.98,189.007 180.035,191.555 180.035,194.211L180.035,202.867C180.035,213.902 188.981,222.849 200.017,222.849C200.017,222.849 200.018,222.849 200.018,222.849C210.655,222.849 219.351,214.537 219.965,204.055L219.965,194.211C219.965,191.555 221.02,189.007 222.899,187.129C224.777,185.25 227.325,184.195 229.981,184.195C229.982,184.195 229.983,184.195 229.984,184.195C232.64,184.195 235.188,185.25 237.066,187.129C238.945,189.007 240,191.555 240,194.211L240,270C240,277.956 243.161,285.587 248.787,291.213C254.413,296.839 262.044,300 270,300L270,300C286.569,300 300,286.569 300,270C300,232.239 300,167.761 300,130C300,113.431 286.569,100 270,100C270,100 270,100 270,100C253.431,100 240,113.431 240,130L240,148.94C240,151.596 238.945,154.144 237.066,156.022C235.188,157.9 232.64,158.956 229.984,158.956C229.983,158.956 229.982,158.956 229.981,158.956C227.325,158.956 224.777,157.9 222.899,156.022C221.02,154.144 219.965,151.596 219.965,148.94L219.965,145.307C219.351,134.826 210.655,126.514 200.018,126.514C200.018,126.514 200.017,126.514 200.017,126.514C188.981,126.514 180.035,135.46 180.035,146.496Z" style="fill:url(#_Linear1);"/>
            </g>
            <g transform="matrix(1,0,0,1,-1.13687e-13,10)">
                <path d="M965.677,538.252L938.952,497.119C938.947,497.112 938.943,497.105 938.938,497.098C938.05,495.766 936.762,494.663 935.042,493.83C933.375,493.024 931.785,492.642 930.28,492.642C927.449,492.642 925.027,493.625 923.012,495.585C920.974,497.568 919.965,499.941 919.965,502.696L919.965,578.349C919.965,581.178 920.86,583.535 922.601,585.439C924.397,587.403 926.69,588.403 929.496,588.403C932.4,588.403 934.733,587.394 936.521,585.439C938.262,583.535 939.157,581.178 939.157,578.349L939.157,531.723L956.872,559.733C956.918,559.804 956.967,559.873 957.021,559.938C957.953,561.077 959.113,562.066 960.511,562.894C962.045,563.803 963.56,564.185 965.039,564.104C966.61,564.188 968.167,563.797 969.691,562.894C971.089,562.066 972.249,561.077 973.181,559.938C973.227,559.882 973.271,559.823 973.311,559.762L991.044,532.727L991.044,578.349C991.044,581.203 992.02,583.585 993.941,585.506C995.847,587.412 998.31,588.403 1001.36,588.403C1004.43,588.403 1006.87,587.401 1008.73,585.485C1010.6,583.569 1011.54,581.195 1011.54,578.349C1011.54,578.349 1011.54,502.696 1011.54,502.696C1011.54,499.706 1010.47,497.277 1008.37,495.395C1006.31,493.549 1003.97,492.642 1001.36,492.642C998.06,492.642 995.343,494.085 993.253,497.055C993.244,497.068 993.235,497.081 993.226,497.095L965.677,538.252Z" style="fill:rgb(64,64,64);fill-rule:nonzero;"/>
                <path d="M1042.72,558.873L1083.15,558.873C1085.75,558.873 1088.03,558.055 1089.97,556.431C1092.01,554.735 1093.09,552.534 1093.2,549.821C1093.21,549.792 1093.21,549.763 1093.21,549.734C1093.21,544.741 1092.26,540.027 1090.36,535.589C1088.47,531.171 1085.92,527.283 1082.7,523.924C1079.47,520.554 1075.75,517.9 1071.55,515.961C1067.31,514.005 1062.82,513.026 1058.07,513.026C1051.95,513.026 1046.16,514.596 1040.69,517.746C1035.24,520.888 1030.82,525.385 1027.45,531.253C1024.1,537.072 1022.4,544.099 1022.4,552.348C1022.4,559.429 1023.96,565.772 1027.04,571.382C1030.14,577.034 1034.59,581.509 1040.38,584.799C1046.12,588.057 1052.88,589.709 1060.68,589.709L1060.68,589.709C1065.27,589.709 1069.73,588.951 1074.04,587.436C1078.42,585.9 1081.81,584.085 1084.23,582.038C1087.23,579.671 1088.63,576.959 1088.63,574.037C1088.63,571.745 1087.82,569.735 1086.15,568.016C1084.49,566.297 1082.41,565.421 1079.89,565.421C1078.2,565.421 1076.41,565.87 1074.51,566.817C1074.49,566.828 1074.47,566.839 1074.45,566.851C1073.45,567.392 1072.35,568.045 1071.13,568.812C1070.1,569.462 1068.74,570.001 1067.06,570.459C1065.28,570.945 1062.89,571.17 1059.9,571.17C1056.77,571.17 1053.81,570.405 1051.03,568.879C1048.26,567.355 1046,565.118 1044.24,562.186C1043.62,561.16 1043.12,560.056 1042.72,558.873ZM1074.29,542.376C1073.95,540.516 1073.22,538.814 1072.09,537.27C1070.56,535.181 1068.66,533.527 1066.4,532.301C1064.13,531.078 1061.73,530.468 1059.18,530.468C1056.61,530.468 1054.21,530.84 1051.99,531.594C1049.91,532.297 1048.12,533.482 1046.6,535.152C1045.04,536.871 1043.83,539.192 1042.93,542.087L1042.84,542.376L1074.29,542.376Z" style="fill:rgb(64,64,64);"/>
                <path d="M1121.69,578.349L1121.69,524.386C1121.69,521.54 1120.74,519.166 1118.88,517.251C1117,515.318 1114.64,514.332 1111.77,514.332C1108.9,514.332 1106.53,515.318 1104.66,517.251C1102.8,519.166 1101.85,521.54 1101.85,524.386C1101.85,524.386 1101.85,578.349 1101.85,578.349C1101.85,581.195 1102.8,583.569 1104.66,585.485C1106.53,587.417 1108.9,588.403 1111.77,588.403C1114.64,588.403 1117,587.417 1118.88,585.485C1120.74,583.569 1121.69,581.195 1121.69,578.349ZM1111.64,510.006C1115.16,510.006 1117.68,509.346 1119.24,508.257C1121,507.026 1122.08,504.792 1122.08,501.39L1122.08,498.907C1122.08,495.651 1121.09,493.452 1119.46,492.173C1117.99,491.017 1115.45,490.291 1111.77,490.291C1108.45,490.291 1106,490.931 1104.39,492.021C1102.57,493.256 1101.45,495.496 1101.45,498.907C1101.45,498.907 1101.45,501.39 1101.45,501.39C1101.45,504.646 1102.45,506.844 1104.08,508.124C1104.08,508.124 1104.08,508.124 1104.08,508.124C1105.56,509.284 1108.05,510.006 1111.64,510.006Z" style="fill:rgb(64,64,64);fill-rule:nonzero;"/>
            </g>
        </g>
    </g>
    <defs>
        <linearGradient id="_Linear1" x1="0" y1="0" x2="1" y2="0" gradientUnits="userSpaceOnUse" gradientTransform="matrix(-83.831,131,-131,-83.831,243.831,115.32)"><stop offset="0" style="stop-color:rgb(43,213,200);stop-opacity:1"/><stop offset="1" style="stop-color:rgb(0,159,213);stop-opacity:1"/></linearGradient>
    </defs>
</svg>
